<?xml version="1.0" encoding="UTF-8"?> <svg xmlns="http://www.w3.org/2000/svg" id="_レイヤー_1" data-name=" レイヤー 1" viewBox="0 0 150 60"><defs><style>.cls-1{fill:#c7000b;}</style></defs><path class="cls-1" d="M35.15,32c-3.24-2.8-9.33-2.09-10.51-1.92a2.46,2.46,0,0,0,.7,4.88c2.05-.3,5.48-.19,6.59.77a.77.77,0,0,1,.28.68c0,3.2-3.78,8.92-11.31,8.92-8.14,0-13.41-5.57-13.41-14.2s5.19-14.64,12.84-14.64c6.69,0,9,2.56,9.8,3.81A3.2,3.2,0,0,0,32.27,22a2.46,2.46,0,0,0,2.87-2.43V12.16a2.46,2.46,0,1,0-4.92,0V13.6c-2.09-1.3-5.49-2-9.89-2C10,11.6,2.57,19.8,2.57,31.16S9.93,50.29,20.9,50.29s16.23-8.18,16.23-13.84A5.65,5.65,0,0,0,35.15,32Z"></path><path class="cls-1" d="M49.38,16.91H62.29a12,12,0,0,0,2,.12l.32,3.06a2.46,2.46,0,0,0,2.45,2.21h.25a2.47,2.47,0,0,0,2.2-2.71l-.78-7.45c0-.15,0-.3,0-.44a2.46,2.46,0,0,0-4.88.4,4,4,0,0,0-1.53-.1H42.62a2.46,2.46,0,0,0,0,4.92h1.84V45.37H42.62a2.46,2.46,0,0,0,0,4.92h17A10.45,10.45,0,0,0,67,47.61a10.41,10.41,0,0,0,2.54-7.2,2.46,2.46,0,0,0-4.92.25,5.53,5.53,0,0,1-1.22,3.58,5.63,5.63,0,0,1-3.79,1.13H49.38V32.78H60.23V34.7a2.46,2.46,0,1,0,4.92,0V27a2.46,2.46,0,0,0-4.92,0v.83H49.38V16.91Z"></path><path class="cls-1" d="M109.84,11.93h-8.3a2.46,2.46,0,0,0,0,4.92h1.87a6.89,6.89,0,0,0-.07.93V41.56S90.81,20.71,88.15,16.4c-2-3.22-2.46-4.46-4.62-4.46H77.08a2.47,2.47,0,0,0-2.47,2.46,2.37,2.37,0,0,0,2.47,2.46h1.38V45.3l-.24,0H77a2.46,2.46,0,0,0-.28,4.91c.12,0-.43,0-.1,0l.53,0h8a2.46,2.46,0,1,0,0-4.92H83.39V18.05C84,18.75,95,38.43,100.69,47c1,1.45,1.91,3.33,4.82,3.33,2.5,0,2.76-2,2.76-5.39V19.75c0-1.79.34-2.9,1.37-2.9a2.64,2.64,0,0,0,2.73-2.46,2.33,2.33,0,0,0-2.53-2.46Z"></path><path class="cls-1" d="M145.37,39.78a2.45,2.45,0,0,0-2.84,2,4,4,0,0,1-4.07,3.3c-1.34,0-3.13,0-5.21.11-2.89.09-6.18.19-9.56.19h-.23c1.19-1.38,3.84-4.62,10-12.14,4.37-5.36,10.44-13,11.09-13.68a4.31,4.31,0,0,0,1.1-4.74C145.28,14,144,12,140.29,12H127.36a9.49,9.49,0,0,0-3.69.69c.21-1.27-.18-2.57-1.45-2.85a2.58,2.58,0,0,0-3,1.93l-1.85,6.58a2.46,2.46,0,0,0,4.28,2.12c1.3-1.54,3.68-3.55,5.35-3.55h13.33c-1.4,1.64-5.24,6.54-10.7,13.25-4.27,5.23-9.58,11.74-10.32,12.53-1.72,1.55-2.36,3.34-1.75,4.92,1,2.72,4.73,2.72,6.13,2.72,3.45,0,6.92-.1,9.71-.18,2-.06,3.8-.11,5.06-.11a8.9,8.9,0,0,0,8.91-7.35,2.46,2.46,0,0,0-2-2.86Z"></path></svg> 